<?xml version="1.0" encoding="UTF-8"?>
<!-- Generator: Adobe Illustrator 23.0.6, SVG Export Plug-In . SVG Version: 6.00 Build 0)  -->
<svg xmlns="http://www.w3.org/2000/svg" xmlns:xlink="http://www.w3.org/1999/xlink" version="1.1" id="Layer_1" x="0px" y="0px" viewBox="0 0 1520.67 246.93" style="enable-background:new 0 0 1520.67 246.93;" xml:space="preserve">
<style type="text/css">
	.st0{fill:#FFFFFF;}
	.st1{fill:#E51E25;}
</style>
<path class="st0" d="M916.35,193.47c-12.84,0-23.58-3.65-32.83-11.16l-1.72-1.39l20.96-17.9l1.17,0.81  c3.59,2.49,7.76,3.76,12.42,3.76c5.69,0,10.61-1.89,14.6-5.6c4.13-3.76,6.22-8.36,6.22-13.67V57.33h28.96v90.99  c0,12.5-4.72,22.91-14.44,31.83C941.83,189.12,930.27,193.47,916.35,193.47"></path>
<path class="st0" d="M859.42,185.07c-3.52,0-6.43-1.09-8.9-3.33c-2.48-2.25-3.68-4.83-3.68-7.88c0-3.11,1.19-5.68,3.66-7.86  l0.07-0.06c2.44-2.28,5.34-3.4,8.85-3.4c3.6,0,6.59,1.12,9.14,3.44c2.4,2.18,3.56,4.76,3.56,7.88c0,3.04-1.16,5.61-3.54,7.86  l-0.05,0.05C865.99,183.99,863.01,185.07,859.42,185.07"></path>
<path class="st0" d="M1452.98,185.07c-3.52,0-6.43-1.09-8.9-3.33c-2.48-2.25-3.68-4.83-3.68-7.88c0-3.11,1.19-5.68,3.66-7.86  l0.07-0.06c2.44-2.28,5.34-3.4,8.85-3.4c3.6,0,6.59,1.12,9.14,3.44c2.4,2.18,3.56,4.76,3.56,7.88c0,3.05-1.16,5.61-3.53,7.86  l-0.05,0.05C1459.55,183.99,1456.57,185.07,1452.98,185.07"></path>
<path class="st0" d="M1025.45,193.14c-13.01,0-23.95-3.72-33.45-11.38l-1.72-1.39l21.39-18.38l1.17,0.84  c3.59,2.57,7.83,3.87,12.6,3.87c5.77,0,10.8-1.91,14.95-5.67c2.51-2.28,4.31-4.95,5.37-7.92l1.16-3.28h-21.48  c-14.19,0-25.97-4.41-36.03-13.47c-9.9-9.07-14.7-19.68-14.7-32.43c0-12.83,4.81-23.48,14.72-32.57  c10.06-9.06,21.83-13.46,36.02-13.46c14.27,0,26.05,4.4,36.02,13.47c9.99,9.08,14.85,19.73,14.85,32.56v19.45h340.48  c9.02,0,19.77-4.51,19.77-26V57.4h29.58v39.98c0,17.57-4.13,30.86-12.28,39.49c-8.11,8.6-20.58,12.96-37.07,12.96h-340.5l-0.24,2.19  c-1.15,10.64-5.92,19.65-14.58,27.53C1051.51,188.69,1039.72,193.14,1025.45,193.14 M1025.45,84.35c-5.79,0-10.78,1.92-14.83,5.7  c-4.2,3.82-6.32,8.48-6.32,13.88c0,5.32,2.13,9.95,6.34,13.78c4.04,3.77,9.02,5.67,14.81,5.67h21.29v-19.45  c0-5.4-2.13-10.08-6.34-13.9C1036.26,86.26,1031.23,84.35,1025.45,84.35"></path>
<path class="st0" d="M868.17,123.26h-11.8c-10.61,0-20.24,2.31-28.58,6.86l-0.09,0.05c-4.39,2.24-8.59,5.11-12.5,8.59  c-4.26,3.96-7.79,8.28-10.5,12.84l-0.04,0.07l-0.81,1.72l-0.03,0.06c-3.57,6.65-5.39,14.19-5.39,22.38c0,6.26,1.03,12.07,3.09,17.49  h34.02c-5-4.84-7.54-10.72-7.54-17.49c0-7.25,2.83-13.45,8.42-18.44c5.52-5.02,12.23-7.57,19.93-7.57h52.4v-26.57h-8.89l0.64-2.97  c0.7-3.26,1.05-6.65,1.05-10.06c0-14.52-5.54-26.61-16.93-36.97c-11.46-10.42-24.87-15.48-41.01-15.48  c-16.18,0-29.56,5.03-40.9,15.38l-1.77,1.62l24.43,15.64l1.02-0.75c4.92-3.61,10.72-5.44,17.22-5.44c7.71,0,14.41,2.55,19.94,7.57  c5.59,5.08,8.42,11.28,8.42,18.44c0,4.28-1.04,8.25-3.1,11.8L868.17,123.26z"></path>
<path class="st0" d="M183.08,113.51c24.82,1.27,44.48,13.45,44.48,33.27c0,33.54-38.08,37.96-85.94,38.1v0H54.52V56.4h94.39  c37.81,0,64.03,8.91,64.03,33.37C212.94,102.33,201.34,111.25,183.08,113.51L183.08,113.51z M107.66,107.53h25.92  c12.25,0,24.85-1.15,24.85-13.32c0-10.1-7.94-13.32-22.79-13.32h-27.98V107.53z M141.61,160.38c18.41,0,31.44-5.01,31.44-17.19  c0-14.61-13.03-17.19-31.44-17.19h-33.95l0.08-1.29l-0.08,0v35.67H141.61z"></path>
<path class="st0" d="M364.21,56.4v48.57c0,27.93-29.05,38.81-65.2,38.81c-36.15,0-65.2-10.88-65.2-38.81V56.4h44.4v48.09  c0,18.38,9.21,23,20.79,23c11.58,0,20.79-4.62,20.79-23V56.4H364.21z"></path>
<path class="st0" d="M516.03,139.11c9.43,3.07,16.56,9.54,19.85,16.61c4.8,10.33,5.85,19.35,13.44,29.16l-54.79,0  c-5.59-5.42-8.04-18.43-12.1-25.17c-6.15-10.21-12.75-12.83-29.45-12.94h-21.26v38.11h-53.14V56.39l79.24,0  c48.97,0,84.98,8.28,84.98,45.18C542.8,121.08,532.74,132.59,516.03,139.11 M431.72,122.27h24.13c18.41,0,32.44-4.37,32.44-20.69  c0-16.32-14.04-20.69-32.44-20.69h-24.13V122.27z"></path>
<path class="st0" d="M659.61,120.64l66.17,0v64.24h-20.62l-6.99-9.39c-14.74,8.57-33.94,12.33-56.06,12.33  c-48.97,0-88.31-17.54-88.31-67.17s39.34-67.17,88.31-67.17c42.35,0,74.19,15.68,82.49,48.77h-50.54  c-4.61-19.58-17.33-24.28-31.95-24.28c-18.41,0-33.8,7.45-33.8,42.68c0,32.3,23.17,40.29,41.58,40.29  c12.97,0,31.28-1.44,42.06-15.79h-32.34L659.61,120.64L659.61,120.64z"></path>
<rect x="236.59" y="160.5" class="st1" width="121.62" height="23.2"></rect>
</svg>
